HIERARCHY
ROOT root
{
	OFFSET	0	13.1	24.9
	CHANNELS 6  Xposition Yposition Zposition Xrotation Yrotation Zrotation
	JOINT spine_1
	{
		OFFSET	0	9.99999	0
		CHANNELS 3  Xrotation Yrotation Zrotation
		JOINT spine_2
		{
			OFFSET	0	112	-10
			CHANNELS 3  Xrotation Yrotation Zrotation
			JOINT spine_3
			{
				OFFSET	0	206.5	19.3
				CHANNELS 3  Xrotation Yrotation Zrotation
				JOINT spine_4
				{
					OFFSET	0	110.4	14.6
					CHANNELS 3  Xrotation Yrotation Zrotation
					JOINT neck_1
					{
						OFFSET	0	71.8	-50.3
						CHANNELS 3  Xrotation Yrotation Zrotation
						JOINT neck_2
						{
							OFFSET	0	86.2	-25.8
							CHANNELS 3  Xrotation Yrotation Zrotation
							JOINT head_ee
							{
								OFFSET	0	179.8	-8.7
								CHANNELS 3  Xrotation Yrotation Zrotation
								End Site
								{
									OFFSET	1	0	0
								}
							}
						}
					}
					JOINT left_clavicle
					{
						OFFSET	-43.2	22.4	-70.8
						CHANNELS 3  Xrotation Yrotation Zrotation
						JOINT left_shoulder
						{
							OFFSET	-93.9	-5.79999	48.7
							CHANNELS 3  Xrotation Yrotation Zrotation
							JOINT left_elbow
							{
								OFFSET	-291.4	-30.8	15.2
								CHANNELS 3  Xrotation Yrotation Zrotation
								JOINT left_lowarm_twist
								{
									OFFSET	-110.7	-3.89999	13.6
									CHANNELS 3  Xrotation Yrotation Zrotation
									JOINT left_hand
									{
										OFFSET	-110.7	-3.89999	13.6
										CHANNELS 3  Xrotation Yrotation Zrotation
										JOINT left_ee
										{
											OFFSET	-80.8	-5.10001	12.1
											CHANNELS 3  Xrotation Yrotation Zrotation
											End Site
											{
												OFFSET	1	0	0
											}
										}
									}
								}
							}
						}
					}
					JOINT right_clavicle
					{
						OFFSET	43.2	22.4	-70.8
						CHANNELS 3  Xrotation Yrotation Zrotation
						JOINT right_shoulder
						{
							OFFSET	93.9	-5.79999	48.7
							CHANNELS 3  Xrotation Yrotation Zrotation
							JOINT right_elbow
							{
								OFFSET	291.4	-30.8	15.2
								CHANNELS 3  Xrotation Yrotation Zrotation
								JOINT right_lowarm_twist
								{
									OFFSET	110.7	-3.89999	13.6
									CHANNELS 3  Xrotation Yrotation Zrotation
									JOINT right_hand
									{
										OFFSET	110.7	-3.89999	13.6
										CHANNELS 3  Xrotation Yrotation Zrotation
										JOINT right_ee
										{
											OFFSET	80.8	-5.10001	12.1
											CHANNELS 3  Xrotation Yrotation Zrotation
											End Site
											{
												OFFSET	1	0	0
											}
										}
									}
								}
							}
						}
					}
				}
			}
		}
	}
	JOINT left_hip
	{
		OFFSET	-82.8	-127.5	0.300001
		CHANNELS 3  Xrotation Yrotation Zrotation
		JOINT left_knee
		{
			OFFSET	-28.2	-396.7	2.2
			CHANNELS 3  Xrotation Yrotation Zrotation
			JOINT left_ankle
			{
				OFFSET	-11.7	-411.3	35.4
				CHANNELS 3  Xrotation Yrotation Zrotation
				JOINT left_toes
				{
					OFFSET	0	-60	-88.6
					CHANNELS 3  Xrotation Yrotation Zrotation
					JOINT left_foot_ee
					{
						OFFSET	-22.5	-16.5	-42.2
						CHANNELS 3  Xrotation Yrotation Zrotation
						End Site
						{
							OFFSET	1	0	0
						}
					}
				}
			}
		}
	}
	JOINT right_hip
	{
		OFFSET	82.8	-127.5	0.300001
		CHANNELS 3  Xrotation Yrotation Zrotation
		JOINT right_knee
		{
			OFFSET	28.2	-396.7	2.2
			CHANNELS 3  Xrotation Yrotation Zrotation
			JOINT right_ankle
			{
				OFFSET	11.7	-411.3	35.4
				CHANNELS 3  Xrotation Yrotation Zrotation
				JOINT right_toes
				{
					OFFSET	0	-60	-88.6
					CHANNELS 3  Xrotation Yrotation Zrotation
					JOINT right_foot_ee
					{
						OFFSET	22.5	-16.5	-42.2
						CHANNELS 3  Xrotation Yrotation Zrotation
						End Site
						{
							OFFSET	1	0	0
						}
					}
				}
			}
		}
	}
}
MOTION
Frames: 11
Frame Time: 0.02
2859.76625651 708.297 -1581.87921997 52.350256551 84.7018727227 -55.0061554937 -0.76928 -0.265792 1.41152 -0.768242 -0.355063 1.39175 -0.776521 -0.657154 1.2772 -0.778518 -0.447218 1.36494 -14.8384 -0.434824 -1.62705 -14.8309 0.140014 -1.68079 -0.0 0.0 -0.0 2.34314 10.4698 5.25329 12.2751 -32.2217 69.6754 1.09482 -28.472 0.277772 -83.1863 -8.22447 5.22551 1.50554 11.2869 14.3952 -0.0 0.0 -0.0 6.47578 18.4692 -11.7578 -15.4468 5.33152 -68.1815 0.698724 19.0922 -0.117506 66.6033 2.39574 7.68212 -1.70013 -18.1464 2.91795 0.0 0.0 0.0 -0.534398 10.2693 10.7215 -1.18213 0.0468668 0.175357 26.4147 15.5245 -3.53636 -32.9977 0.0 0.0 -0.0 0.0 -0.0 2.75004 10.1082 8.31634 -49.072 1.14231 -7.21799 41.492 -23.0253 5.24603 22.2887 -0.0 -0.0 0.0 0.0 0.0 
2840.36705803 708.703 -1578.60440903 63.3115952556 84.5091638627 -65.837396297 -0.852446 -0.499538 1.36485 -0.8516 -0.585367 1.3303 -0.865144 -0.869734 1.16446 -0.8664 -0.67493 1.28719 -14.2396 -2.23239 -1.07869 -14.2463 -3.60654 -1.73249 -0.0 0.0 -0.0 2.31727 9.70629 5.16014 13.6974 -32.6339 69.5792 1.15669 -29.8113 0.307904 -82.8403 -8.18093 5.2325 0.976923 10.9967 10.832 -0.0 0.0 -0.0 6.11051 17.2692 -11.0582 -18.9386 4.98834 -68.2984 0.713219 19.4587 -0.12229 66.5008 2.38558 7.67376 -1.8627 -18.4737 3.74335 0.0 0.0 0.0 -2.63652 9.9385 10.537 -0.69729 0.0280829 0.103322 27.8001 15.6472 -3.69646 -32.5377 0.0 0.0 -0.0 0.0 -0.0 7.18204 8.9841 7.89256 -50.3464 1.25247 -7.3804 42.3687 -22.6166 5.31299 22.4485 -0.0 -0.0 0.0 0.0 0.0 
2823.24291351 707.169 -1581.16888942 44.6759068973 83.1881183539 -47.1771956258 -0.72244 0.00944334 0.974136 -0.721914 -0.0525596 0.972763 -0.722508 -0.267696 0.936684 -0.723714 -0.116412 0.967202 -14.7752 -0.578712 -1.09332 -14.772 -0.452345 -1.22302 -0.0 0.0 -0.0 2.35508 8.3765 5.13976 15.6741 -32.6241 69.4561 1.12952 -29.2275 0.294518 -82.9475 -8.19442 5.23036 0.988757 10.8676 10.8609 -0.0 0.0 -0.0 6.04889 16.815 -10.9589 -20.5748 4.39976 -68.8793 0.476202 13.2734 -0.0554079 66.1065 2.34669 7.64144 -1.97269 -18.7958 4.25015 0.0 0.0 0.0 -3.60646 9.70438 10.3849 -1.31375 0.0518602 0.194939 28.8824 17.0307 -3.83462 -32.3779 0.0 0.0 -0.0 0.0 -0.0 8.74813 10.2817 6.38674 -50.6342 1.27785 -7.41674 42.062 -23.4374 5.31043 22.8992 -0.0 -0.0 0.0 0.0 0.0 
2795.58607827 704.48 -1576.95468631 31.6207608368 81.7334305341 -33.303549129 -0.376133 0.0641774 0.505448 -0.375991 0.0318848 0.508507 -0.375622 -0.0790067 0.503343 -0.375976 0.00147746 0.509504 -14.1534 0.476311 0.207167 -14.1537 0.782905 0.347192 -0.0 0.0 -0.0 2.88554 6.15728 5.95167 18.0671 -32.8581 68.1034 1.21214 -30.9819 0.335962 -82.0556 -8.082 5.24734 0.798696 10.1317 9.34916 -0.0 0.0 -0.0 4.81313 14.1519 -8.51031 -24.24 3.70833 -69.3265 0.567476 15.7014 -0.078247 62.9211 2.04078 7.3707 -1.90852 -19.2488 3.64523 0.0 0.0 0.0 -6.58735 10.5773 10.6709 1.6341 -0.070732 -0.240769 31.6062 17.6625 -4.14289 -32.6455 0.0 0.0 -0.0 0.0 -0.0 13.1287 2.4786 7.32978 -48.0323 1.05515 -7.08374 40.0281 -19.6254 5.02248 22.7772 -0.0 -0.0 0.0 0.0 0.0 
2779.77133596 701.353 -1576.61513296 32.3193597838 81.6723323556 -33.7837837772 -0.412135 0.0880419 0.403631 -0.412047 0.0621796 0.408415 -0.411541 -0.0280095 0.41217 -0.411775 0.0374361 0.411421 -14.2736 1.44925 3.02518 -14.2484 0.931767 3.32912 -0.0 0.0 -0.0 2.77471 4.37553 5.6403 20.3828 -32.9991 65.0894 1.32553 -33.2884 0.396288 -81.2877 -7.98496 5.26055 0.0617706 10.4377 4.71564 -0.0 0.0 -0.0 4.61085 12.0568 -8.23467 -24.337 2.43292 -69.2288 0.410073 11.4829 -0.0412307 61.5528 1.9141 7.24929 -2.15077 -19.5941 4.92553 0.0 0.0 0.0 -8.96229 10.1381 9.62715 2.43812 -0.108053 -0.358487 35.4318 16.8558 -4.52782 -33.2764 0.0 0.0 -0.0 0.0 -0.0 19.7054 1.87884 5.11364 -42.7416 0.650335 -6.37775 36.7511 -16.4312 4.65115 21.616 -0.0 -0.0 0.0 0.0 0.0 
2766.72874659 697.298 -1570.56838709 33.3208007988 82.5142592844 -34.492916739 -0.327916 0.0739853 0.366711 -0.327843 0.0505008 0.370675 -0.327467 -0.0306658 0.37284 -0.327659 0.0286018 0.373004 -14.7362 2.36505 4.47211 -14.6823 1.84233 4.99912 -0.0 0.0 -0.0 2.41162 3.85155 4.932 20.4241 -33.5773 62.6895 1.45124 -35.7103 0.467506 -81.1225 -7.96407 5.26322 -0.204484 10.3823 2.98796 -0.0 0.0 -0.0 4.32644 11.2741 -7.69343 -24.728 2.98985 -69.8445 0.361398 10.1501 -0.0320955 60.6269 1.83005 7.16545 -2.3476 -20.6409 5.57035 0.0 0.0 0.0 -9.22183 10.0766 7.95942 2.32915 -0.102898 -0.342563 36.1855 15.5037 -4.58219 -33.3166 0.0 0.0 -0.0 0.0 -0.0 20.2196 1.01453 3.84423 -33.2397 0.0935965 -5.02947 34.6574 -16.1402 4.43924 20.5569 -0.0 -0.0 0.0 0.0 0.0 
2755.23706773 696.261 -1570.64507745 37.3169862279 82.9062558759 -38.3815509109 -0.373763 -0.0149334 0.340215 -0.373699 -0.0365518 0.338575 -0.373888 -0.109005 0.322625 -0.374029 -0.0566844 0.335792 -14.852 2.69101 5.29299 -14.7759 1.98525 5.88299 -0.0 0.0 -0.0 2.2333 3.51164 4.57528 19.9831 -33.6993 60.4031 1.57754 -38.0037 0.543277 -81.086 -7.95945 5.2638 -0.700331 10.5276 -0.118576 -0.0 0.0 -0.0 3.99049 9.8596 -7.09444 -24.9765 2.98557 -70.455 0.387695 10.8716 -0.0368926 60.1095 1.78368 7.11802 -2.48845 -21.2249 6.10314 0.0 0.0 0.0 -10.7637 10.0218 7.226 2.5417 -0.112981 -0.373614 37.4577 13.1976 -4.67508 -33.4242 0.0 0.0 -0.0 0.0 -0.0 21.3488 0.804822 2.47947 -26.2453 -0.169471 -3.98895 34.0882 -15.7379 4.37585 19.9813 -0.0 -0.0 0.0 0.0 0.0 
2740.41411993 693.485 -1576.72083531 31.9400534452 81.1714669812 -32.6764839481 -0.546639 -0.0790673 0.330965 -0.546584 -0.0999671 0.325263 -0.547138 -0.168927 0.295387 -0.54724 -0.120157 0.318358 -14.1274 4.02972 6.58397 -14.0149 3.67938 7.51151 -0.0 0.0 -0.0 2.3904 3.15323 4.84205 17.9595 -32.5614 57.3057 1.77838 -41.3749 0.671594 -81.9337 -8.0666 5.24953 -1.18998 11.978 -2.5939 -0.0 0.0 -0.0 3.59829 8.7827 -6.36166 -24.5864 3.01759 -70.793 0.521655 14.4892 -0.0663132 59.8499 1.76058 7.09407 -3.12869 -22.6123 9.12026 0.0 0.0 0.0 -11.9148 10.2735 6.52643 2.38394 -0.105485 -0.350569 38.8536 13.9061 -4.81337 -34.1118 0.0 0.0 -0.0 0.0 -0.0 21.6022 2.64508 -1.21107 -15.6946 -0.322062 -2.37945 32.2914 -15.2648 4.18362 18.1887 -0.0 -0.0 0.0 0.0 0.0 
2740.2643433 693.485 -1577.4301007 31.6259019655 81.0923603363 -32.3585317253 -0.546639 -0.0790673 0.330965 -0.546584 -0.0999671 0.325263 -0.547138 -0.168927 0.295387 -0.54724 -0.120157 0.318358 -14.1274 4.02972 6.58397 -14.0149 3.67938 7.51151 -0.0 0.0 -0.0 2.3904 3.15323 4.84205 17.9595 -32.5614 57.3057 1.77838 -41.3749 0.671594 -81.9337 -8.0666 5.24953 -1.18998 11.978 -2.5939 -0.0 0.0 -0.0 3.59829 8.7827 -6.36166 -24.5864 3.01759 -70.793 0.521655 14.4892 -0.0663132 59.8499 1.76058 7.09407 -3.12869 -22.6123 9.12026 0.0 0.0 0.0 -11.9148 10.2735 6.52643 2.38394 -0.105485 -0.350569 38.8536 13.9061 -4.81337 -34.1118 0.0 0.0 -0.0 0.0 -0.0 21.6022 2.64508 -1.21107 -15.6946 -0.322062 -2.37945 32.2914 -15.2648 4.18362 18.1887 -0.0 -0.0 0.0 0.0 0.0 
2726.238458 686.142 -1582.29207685 24.5656294876 79.3449472419 -25.0996829019 -0.490967 -0.101028 0.294645 -0.490926 -0.119572 0.28762 -0.491524 -0.179544 0.254532 -0.491589 -0.137092 0.279693 -14.0394 5.15416 7.6912 -13.8915 5.13748 8.90612 -0.0 0.0 -0.0 2.35323 2.74212 4.74216 17.592 -31.0787 55.5309 1.96288 -44.1922 0.796953 -81.8488 -8.05588 5.25103 -1.75087 14.2316 -5.08321 -0.0 0.0 -0.0 3.43881 7.82231 -6.10528 -24.9312 3.3571 -70.0563 0.547241 15.1678 -0.0728615 59.2611 1.70859 7.03935 -3.7889 -23.9416 12.2095 0.0 0.0 0.0 -13.0665 12.7989 6.39296 2.57836 -0.114731 -0.378965 41.1684 13.5316 -5.01481 -34.9297 0.0 0.0 -0.0 0.0 -0.0 21.4942 4.25987 -2.61037 -9.4259 -0.271846 -1.41941 33.2365 -14.5286 4.27347 16.9021 -0.0 -0.0 0.0 0.0 0.0 
2711.9551107 683.168 -1586.21021626 22.0155373878 78.1371706399 -22.2093017676 -0.438172 -0.166017 0.306528 -0.438138 -0.185186 0.295342 -0.439107 -0.245033 0.247951 -0.439135 -0.202798 0.283538 -12.9862 5.90528 7.65548 -12.8473 6.42538 9.04682 -0.0 0.0 -0.0 2.47475 1.84424 4.90535 16.7569 -30.821 53.3764 2.1073 -46.2246 0.89946 -82.4477 -8.13145 5.2401 -2.17415 16.0297 -6.84284 -0.0 0.0 -0.0 3.28975 7.58848 -5.81766 -25.0611 3.71372 -69.8641 0.557113 15.4285 -0.0754662 59.1455 1.69844 7.02854 -4.17358 -24.5957 14.0545 0.0 0.0 0.0 -14.1074 12.8397 5.87241 2.13335 -0.0937112 -0.313926 41.5751 13.4675 -5.04901 -34.614 0.0 0.0 -0.0 0.0 -0.0 22.5478 5.46665 -4.66414 -3.57003 -0.130439 -0.532274 33.5329 -14.2377 4.30065 16.0359 -0.0 -0.0 0.0 0.0 0.0 
